<svg height="512" viewBox="0 0 128 128" width="512" xmlns="http://www.w3.org/2000/svg"><g id="icon"><path d="m116.811 62.889s3.436-6.872-3.921-9.993a7.864 7.864 0 0 0 -3.066-.608h-29.993l-8.431-17.488a5.251 5.251 0 0 0 -4.732-2.972h-57.268a5.253 5.253 0 0 0 -5.253 5.253v33.45l5.177 9.615h105.126l6.059-6.656z" fill="#4fa4d1"/><path d="m112.167 59.574a7.412 7.412 0 0 0 -1.157-.574h-18.149a3.156 3.156 0 0 0 -2.028 1.334c-.589.98-.725 2.222-1.213 3.258-1 2.121-3.135 3.515-4.981 4.856-2.393 1.74-4.9 3.367-6.8 5.654a1.234 1.234 0 0 1 -.8 2.136c-4.746-.032-9.5-.338-14.247-.491-3.385-.11-6.822-.557-10.2-.241a1.377 1.377 0 0 1 -1.532 1.466c-5.048-.7-7.941-4.546-10.262-8.731-2.049-3.7-5.24-7.878-9.67-9.2-2.67-.8-4.566-1.513-7.318-1.392-2.354.1-4.726-.019-7.074.152-2.665.194-4.6 1.127-5.463 3.747-.6 1.819-1.057 3.68-1.79 5.455-.983 2.37-2.668 4.497-4.96 4.232l4.708 8.737.094.175h105.124l5.986-6.575a57.481 57.481 0 0 1 -4.651-8.512c-.861-1.981-1.696-4.285-3.617-5.486z" fill="#4fa4d1"/><path d="m87.081 62.977-1.638 1.811c.284-.242.562-.489.825-.751a5.2 5.2 0 0 0 .813-1.06z" fill="#da2a47"/><path d="m48.25 78.419a1.8 1.8 0 0 1 -2.523-.283l-3.121-3.906-10.941-13.7h-16.441l-5.176 10.89-.288.6a1.8 1.8 0 1 1 -3.246-1.54l.337-.7 5.617-11.812a1.793 1.793 0 0 1 1.62-1.028h18.444a1.8 1.8 0 0 1 1.4.678l13.268 16.612 1.333 1.67a1.8 1.8 0 0 1 -.283 2.519z" fill="#6bb3d9"/><path d="m118.665 65.493a1.745 1.745 0 0 1 -.763.517 1.794 1.794 0 0 1 -1.769-.342l-4.557-3.955h-18.506l-11.323 12.517-2.747 3.031a1.8 1.8 0 0 1 -2.663-2.411l.561-.62 14.039-15.516a1.8 1.8 0 0 1 1.333-.593h19.979a1.8 1.8 0 0 1 1.176.44l3.781 3.287 1.279 1.109a1.8 1.8 0 0 1 .18 2.536z" fill="#6bb3d9"/><path d="m71.377 52.238h-25.428a1.881 1.881 0 0 1 -1.867-1.618 1.271 1.271 0 0 1 -.031-.28v-11.584a1.9 1.9 0 0 1 1.9-1.887h19.785a1.9 1.9 0 0 1 1.534.788 2.1 2.1 0 0 1 .166.27l5.642 11.584a1.9 1.9 0 0 1 -1.701 2.727z" fill="#43567c"/><path d="m39.457 38.756v11.584a1.9 1.9 0 0 1 -1.9 1.9h-26.142a1.9 1.9 0 0 1 -1.9-1.9v-11.584a1.9 1.9 0 0 1 1.9-1.887h26.144a1.9 1.9 0 0 1 1.898 1.887z" fill="#43567c"/><rect fill="#43567c" height="7.78" rx="1.923" width="43.944" x="40.406" y="74.23"/><path d="m127.764 65.1-1.406-2.3a1.612 1.612 0 0 0 -1.374-.77h-6.571a1.613 1.613 0 0 0 -1.046.386l-2.048 1.753a1.61 1.61 0 0 0 -.454 1.807l2.591 6.649a1.612 1.612 0 0 0 1.358 1.019l5.844.518a1.609 1.609 0 0 0 1.28-.466l1.591-1.59a1.612 1.612 0 0 0 .471-1.137v-5.028a1.614 1.614 0 0 0 -.236-.841z" fill="#43567c"/><path d="m10.052 71.554v6.914a1.777 1.777 0 0 1 -1.778 1.783h-6.5a1.781 1.781 0 0 1 -1.774-1.783v-6.914a1.777 1.777 0 0 1 1.778-1.778h6.5a1.779 1.779 0 0 1 1.774 1.644z" fill="#384868"/><g fill="#dbe2eb" opacity=".25"><path d="m28.091 36.869-13.212 15.369h-3.36l13.212-15.369z"/><path d="m36.771 36.869-13.212 15.369h-6.336l13.211-15.369z"/></g><g fill="#dbe2eb" opacity=".25"><path d="m59.275 36.869-13.212 15.369h-.114a1.881 1.881 0 0 1 -1.867-1.618l11.818-13.751z"/><path d="m67.27 37.657-12.537 14.581h-6.333l13.208-15.369h4.128a1.9 1.9 0 0 1 1.534.788z"/></g><circle cx="102.685" cy="80.861" fill="#43567c" r="15.313" transform="matrix(.924 -.383 .383 .924 -23.128 45.451)"/><circle cx="102.685" cy="80.861" fill="#384868" r="8.437" transform="matrix(.924 -.383 .383 .924 -23.128 45.451)"/><g fill="#2f3a5a"><circle cx="102.685" cy="75.565" r=".796"/><circle cx="102.685" cy="86.157" r=".796"/><circle cx="107.981" cy="80.861" r=".796"/><circle cx="97.389" cy="80.861" r=".796"/><circle cx="106.43" cy="77.116" r=".796" transform="matrix(.707 -.707 .707 .707 -23.357 97.844)"/><circle cx="98.94" cy="84.606" r=".796" transform="matrix(.707 -.707 .707 .707 -30.846 94.742)"/><circle cx="106.43" cy="84.606" r=".796" transform="matrix(.707 -.707 .707 .707 -28.653 100.038)"/><circle cx="98.94" cy="77.116" r=".796" transform="matrix(.707 -.707 .707 .707 -25.55 92.548)"/></g><circle cx="24.141" cy="80.861" fill="#43567c" r="15.313" transform="matrix(.924 -.383 .383 .924 -29.107 15.394)"/><circle cx="24.141" cy="80.861" fill="#384868" r="8.437" transform="matrix(.924 -.383 .383 .924 -29.106 15.394)"/><circle cx="24.141" cy="75.565" fill="#2f3a5a" r=".796"/><circle cx="24.141" cy="86.157" fill="#2f3a5a" r=".796"/><circle cx="29.438" cy="80.861" fill="#2f3a5a" r=".796"/><circle cx="18.845" cy="80.861" fill="#2f3a5a" r=".796"/><circle cx="27.886" cy="77.116" fill="#2f3a5a" r=".796" transform="matrix(.707 -.707 .707 .707 -46.362 42.305)"/><circle cx="20.396" cy="84.606" fill="#2f3a5a" r=".796" transform="matrix(.707 -.707 .707 .707 -53.851 39.203)"/><circle cx="27.886" cy="84.606" fill="#2f3a5a" r=".796" transform="matrix(.707 -.707 .707 .707 -51.658 44.499)"/><circle cx="20.396" cy="77.116" fill="#2f3a5a" r=".796" transform="matrix(.707 -.707 .707 .707 -48.555 37.009)"/></g></svg>